<svg xmlns="http://www.w3.org/2000/svg" xmlns:xlink="http://www.w3.org/1999/xlink" width="26" height="15" viewBox="0 0 26 15">
  <defs>
    <style>
      .cls-1 {
        fill-rule: evenodd;
        filter: url(#filter);
      }
    </style>
    <filter id="filter" x="0" y="0.969" width="25.031" height="13.063" filterUnits="userSpaceOnUse">
      <feFlood result="flood" flood-color="#6e774a"/>
      <feComposite result="composite" operator="in" in2="SourceGraphic"/>
      <feBlend result="blend" in2="SourceGraphic"/>
    </filter>
  </defs>
  <path id="Arrow" class="cls-1" d="M24.828,7.079h0l-5.68-5.9a0.553,0.553,0,0,0-.8-0.064,0.606,0.606,0,0,0-.062.832,0.55,0.55,0,0,0,.062.064l4.709,4.9H0.568a0.591,0.591,0,0,0,0,1.18H23.056l-4.709,4.894a0.606,0.606,0,0,0-.062.832,0.553,0.553,0,0,0,.8.065,0.567,0.567,0,0,0,.062-0.065l5.68-5.9A0.607,0.607,0,0,0,24.828,7.079Z"/>
</svg>
