<svg xmlns="http://www.w3.org/2000/svg" xmlns:xlink="http://www.w3.org/1999/xlink" width="20" height="10" viewBox="0 0 20 10">
  <defs>
    <style>
      .cls-1 {
        fill-rule: evenodd;
        filter: url(#filter);
      }
    </style>
    <filter id="filter" x="0" y="0" width="20" height="9.969" filterUnits="userSpaceOnUse">
      <feFlood result="flood" flood-color="#f7f8f3"/>
      <feComposite result="composite" operator="in" in2="SourceGraphic"/>
      <feBlend result="blend" in2="SourceGraphic"/>
    </filter>
  </defs>
  <path id="Arrow" class="cls-1" d="M19.863,4.661h0L15.319,0.134a0.454,0.454,0,0,0-.69.589,0.426,0.426,0,0,0,.05.049L18.445,4.53H0.454a0.453,0.453,0,1,0,0,.905H18.445L14.678,9.188a0.453,0.453,0,1,0,.591.688,0.421,0.421,0,0,0,.05-0.049L19.863,5.3A0.451,0.451,0,0,0,19.863,4.661Z"/>
</svg>
