<svg xmlns="http://www.w3.org/2000/svg" xmlns:xlink="http://www.w3.org/1999/xlink" width="16" height="17" viewBox="0 0 16 17">
  <defs>
    <style>
      .cls-1 {
        fill-rule: evenodd;
        filter: url(#filter);
      }
    </style>
    <filter id="filter" x="0" y="0.969" width="15.969" height="15.063" filterUnits="userSpaceOnUse">
      <feFlood result="flood" flood-color="#6e774a"/>
      <feComposite result="composite" operator="in" in2="SourceGraphic"/>
      <feBlend result="blend" in2="SourceGraphic"/>
    </filter>
  </defs>
  <path id="_1" data-name="1" class="cls-1" d="M15.292,6.11L10.885,5.7a0.761,0.761,0,0,1-.631-0.462L8.675,1.451a0.758,0.758,0,0,0-1.4,0L5.708,5.235a0.745,0.745,0,0,1-.631.462L0.67,6.11A0.752,0.752,0,0,0,.241,7.421l3.321,2.885a0.742,0.742,0,0,1,.24.737l-1,4.046a0.76,0.76,0,0,0,1.124.825L7.6,13.777a0.772,0.772,0,0,1,.77,0l3.674,2.136a0.757,0.757,0,0,0,1.124-.825l-0.985-4.046a0.742,0.742,0,0,1,.24-0.737l3.321-2.885A0.761,0.761,0,0,0,15.292,6.11Z"/>
</svg>
