<svg xmlns="http://www.w3.org/2000/svg" xmlns:xlink="http://www.w3.org/1999/xlink" width="40" height="20" viewBox="0 0 40 20">
  <defs>
    <style>
      .cls-1 {
        fill-rule: evenodd;
        filter: url(#filter);
      }
    </style>
    <filter id="filter" x="0.031" y="0" width="39.969" height="20" filterUnits="userSpaceOnUse">
      <feFlood result="flood" flood-color="#6e774a"/>
      <feComposite result="composite" operator="in" in2="SourceGraphic"/>
      <feBlend result="blend" in2="SourceGraphic"/>
    </filter>
  </defs>
  <path id="Left" class="cls-1" d="M0.274,9.37h0L9.363,0.33a0.912,0.912,0,0,1,1.281-.1,0.9,0.9,0,0,1,.1,1.275,0.871,0.871,0,0,1-.1.1L3.11,9.108H39.091a0.9,0.9,0,1,1,0,1.808H3.11l7.534,7.494a0.9,0.9,0,0,1,.1,1.274,0.912,0.912,0,0,1-1.281.1,0.889,0.889,0,0,1-.1-0.1l-9.088-9.04A0.9,0.9,0,0,1,.274,9.37Z"/>
</svg>
